<?xml version="1.0" encoding="UTF-8"?>
<svg id="_Слой_2" data-name="Слой 2" xmlns="http://www.w3.org/2000/svg" viewBox="0 0 1376 647.27">
  <defs>
    <style>
      .cls-1 {
        fill: #fff;
      }
    </style>
  </defs>
  <g id="_Слой_1-2" data-name="Слой 1">
    <g>
      <path class="cls-1" d="M1376,602.48c0,25.1-19.7,44.79-45.33,44.79s-45.6-19.7-45.6-44.79,20.24-44.26,45.6-44.26,45.33,19.7,45.33,44.26ZM1296.4,602.48c0,19.7,14.57,35.35,34.54,35.35s33.73-15.65,33.73-35.08-14.3-35.62-34-35.62-34.27,15.92-34.27,35.35ZM1323.65,625.68h-10.26v-44.26c4.05-.81,9.72-1.35,17-1.35,8.37,0,12.15,1.35,15.38,3.24,2.43,1.89,4.32,5.4,4.32,9.71,0,4.86-3.78,8.64-9.17,10.25v.54c4.32,1.62,6.75,4.86,8.1,10.79,1.35,6.75,2.16,9.45,3.23,11.06h-11.06c-1.35-1.62-2.16-5.67-3.51-10.79-.81-4.86-3.51-7.01-9.18-7.01h-4.86v17.81ZM1323.92,600.59h4.86c5.67,0,10.25-1.89,10.25-6.48,0-4.05-2.97-6.75-9.44-6.75-2.7,0-4.59.27-5.67.54v12.68Z"/>
      <path class="cls-1" d="M460.28,0h-140.64C194.82,124.82,124.82,194.82,0,319.64v327.63h1056.36c124.82-124.82,194.82-194.82,319.64-319.64V0H460.28Z"/>
      <g>
        <path d="M142.46,429.06c0,20.63-14.96,32.98-40.18,32.98v-16.13c24.05,0,24.05-12.7,24.05-16.85v-30.82h16.13v30.82Z"/>
        <path d="M234.84,429.51c0,20.63-15.05,32.98-40.28,32.98-11.17,0-20.36-2.34-27.3-7.12-8.38-5.86-12.88-14.78-12.88-25.86v-30.82h16.22v30.82c0,11.17,8.11,16.85,23.97,16.85,24.06,0,24.06-12.7,24.06-16.85v-30.82h16.22v30.82Z"/>
        <path d="M321.69,442.75c0,5.41-1.89,15.05-14.6,18.74-6.58,1.89-14.78,1.89-23.52,1.89s-16.31,0-22.97-1.98c-12.8-3.69-14.96-13.33-15.14-18.74l16.22-.45c.09,1.62.09,2.7,3.51,3.69,4.32,1.26,11.17,1.26,18.38,1.26,7.57,0,14.69,0,19.01-1.26,2.88-.81,2.88-1.53,2.88-3.16,0-1.71,0-2.34-2.88-3.24-4.32-1.26-11.44-1.26-19.01-1.26-9.1,0-17.12-.09-23.52-2.07-12.7-3.79-14.59-13.25-14.59-18.56s1.89-15.05,14.69-18.74c6.49-1.89,14.69-1.89,23.42-1.89h1.81c10.09-.09,23.88-.09,31.53,7.75,3.33,3.51,4.95,8.11,4.77,13.25l-16.22-.72c.09-.9-.09-1.08-.27-1.26-2.79-2.88-14.69-2.79-19.73-2.79h-1.89c-7.57,0-14.69,0-19.01,1.26-2.89.81-2.89,1.44-2.89,3.15,0,1.44,0,2.16,2.97,3.06,4.33,1.26,11.45,1.35,18.92,1.35,8.74,0,16.94,0,23.52,1.89,12.7,3.69,14.6,13.33,14.6,18.83Z"/>
        <path d="M405.69,414.82h-30.1v46.85h-16.22v-46.85h-30.1v-16.13h76.41v16.13Z"/>
        <path d="M185.35,524.26c0,19.64-15.41,31.26-41.27,31.26h-37.39v-8.11c0-.27,0-31.27.09-46.32v-8.11h37.3c11.35,0,20.64,2.25,27.66,6.58,8.92,5.5,13.61,14.06,13.61,24.69ZM169.14,524.26c0-12.43-13.61-15.05-25.05-15.05h-21.17v30.18h21.17c16.58,0,25.05-5.13,25.05-15.14Z"/>
        <path d="M212.45,508.94v7.21h47.75v16.22h-47.75v7.21h54.87v16.22h-71.09v-63.07h71.09v16.22h-54.87Z"/>
        <path d="M344.08,492.81l-25.77,62.98h-19.37l-24.42-62.98h17.57l16.67,43.34,17.57-43.34h17.75Z"/>
        <path d="M368.34,508.94v7.21h47.75v16.22h-47.75v7.21h54.87v16.22h-71.09v-63.07h71.09v16.22h-54.87Z"/>
        <path d="M491.2,539.58v16.22h-54.78v-62.98h16.22v46.77h38.56Z"/>
        <path d="M577.35,524.26c0,20.72-15.04,33.07-40.27,33.07-11.17,0-20.36-2.43-27.3-7.21-8.38-5.77-12.88-14.69-12.88-25.86,0-20.64,15.05-32.98,40.19-32.98,11.26,0,20.45,2.34,27.39,7.12,8.38,5.86,12.88,14.78,12.88,25.86ZM561.13,524.26c0-11.17-8.11-16.85-24.06-16.85-23.97,0-23.97,12.7-23.97,16.85,0,11.17,8.11,16.85,23.97,16.85,24.06,0,24.06-12.7,24.06-16.85Z"/>
        <path d="M604.87,555.7h-16.22v-62.89h48.48c7.12,0,13.07,1.62,17.66,4.78,5.77,3.96,8.92,10.27,8.92,17.66,0,13.88-10.18,22.44-26.58,22.44h-32.26v18.02ZM604.87,521.55h32.26c10.36,0,10.36-4.24,10.36-6.31,0-1.8,0-6.22-10.36-6.22h-32.26v12.53Z"/>
        <path d="M759.35,555.79h-16.22v-46.85h-1.53l-18.29,46.67h-13.78l-18.56-46.67h-1.35v46.85h-16.22v-62.98h28.57l14.41,36.13,14.15-36.13h28.83v62.98Z"/>
        <path d="M790.13,508.94v7.21h47.75v16.22h-47.75v7.21h54.87v16.22h-71.09v-63.07h71.09v16.22h-54.87Z"/>
        <path d="M934.44,492.81v62.89h-17.93l-42.08-43.52v43.61h-16.22v-62.98h20l40.01,41.36v-41.36h16.22Z"/>
        <path d="M1019.38,508.94h-30.1v46.85h-16.22v-46.85h-30.1v-16.13h76.41v16.13Z"/>
      </g>
    </g>
  </g>
</svg>